<svg xmlns="http://www.w3.org/2000/svg" viewBox="0 0 100 100">
  <defs>
    <linearGradient id="grad" x1="0%" y1="0%" x2="100%" y2="100%">
      <stop offset="0%" stop-color="#a29bfe" />
      <stop offset="100%" stop-color="#6c5ce7" />
    </linearGradient>
  </defs>
  <path fill="url(#grad)" d="M50 5C22.4 5 0 25.1 0 50c0 14.7 7.7 27.8 19.8 35.8L15 95l21.3-8c4.3 1.3 8.9 2 13.7 2 27.6 0 50-20.1 50-45S77.6 5 50 5z"/>
  <path fill="#ffffff" d="M50 70L30.9 50.8C25.6 45.6 25.6 37 30.9 31.8c5.2-5.2 13.7-5.2 18.9 0l.2.2.2-.2c5.2-5.2 13.7-5.2 18.9 0 5.2 5.2 5.2 13.8 0 19L50 70z"/>
</svg>